<?xml version="1.0" standalone="no"?>
<!DOCTYPE svg PUBLIC "-//W3C//DTD SVG 20010904//EN"
 "http://www.w3.org/TR/2001/REC-SVG-20010904/DTD/svg10.dtd">
<svg version="1.0" xmlns="http://www.w3.org/2000/svg"
 width="700.000000pt" height="700.000000pt" viewBox="0 0 700.000000 700.000000"
 preserveAspectRatio="xMidYMid meet">
<metadata>
Created by potrace 1.14, written by Peter Selinger 2001-2017
</metadata>
<g transform="translate(0.000000,700.000000) scale(0.100000,-0.100000)"
fill="#000000" stroke="none">
<path d="M0 3500 l0 -3500 3500 0 3500 0 0 3500 0 3500 -3500 0 -3500 0 0
-3500z m3470 0 l0 -3280 -780 0 -780 0 -2 2538 -3 2537 -112 3 -113 3 0 -2541
0 -2540 -730 0 -730 0 0 3280 0 3280 1625 0 1625 0 0 -3280z m1620 775 l0
-2505 115 0 115 0 0 2505 0 2505 730 0 730 0 0 -3280 0 -3280 -1540 0 -1540 0
0 3280 0 3280 695 0 695 0 0 -2505z"/>
</g>
</svg>
