<svg width="51" height="25" viewBox="0 0 51 25" fill="none" xmlns="http://www.w3.org/2000/svg">
<g clip-path="url(#clip0_311_745)">
<path d="M18.5257 23.7894L16.5797 18.5659H5.82577L3.87981 23.7894H0.5L9.41045 0.5H12.9951L21.9054 23.7894H18.5257ZM6.91823 15.6713H15.4872L11.1857 4.19303L6.91823 15.6713Z" fill="currentColor"/>
<path d="M46.9154 11.7121C48.0078 12.2223 48.8727 12.9543 49.5099 13.908C50.17 14.8617 50.5 15.9597 50.5 17.2018C50.5 19.0649 49.8286 20.6287 48.4857 21.8929C47.1429 23.1572 45.5043 23.7894 43.5697 23.7894H24.7246V0.5H42.8186C44.6849 0.5 46.2667 1.10996 47.564 2.32988C48.8613 3.5498 49.5099 5.05807 49.5099 6.85467C49.5099 8.91745 48.6451 10.5366 46.9154 11.7121ZM42.8186 3.39454H27.8996V10.5144H42.8186C43.82 10.5144 44.6622 10.1706 45.3449 9.48305C46.0277 8.79542 46.3691 7.95258 46.3691 6.95448C46.3691 5.97855 46.0163 5.14679 45.3108 4.45919C44.628 3.74942 43.7972 3.39454 42.8186 3.39454ZM43.5697 20.8948C44.6394 20.8948 45.5384 20.5289 46.2667 19.7969C46.995 19.0649 47.3592 18.1666 47.3592 17.102C47.3592 16.0595 46.9837 15.1723 46.2325 14.4404C45.5043 13.7084 44.6166 13.3424 43.5697 13.3424H27.8996V20.8948H43.5697Z" fill="currentColor"/>
</g>
<defs>
<clipPath id="clip0_311_745">
<rect width="50" height="24" fill="currentColor" transform="translate(0.5 0.5)"/>
</clipPath>
</defs>
</svg>
