<svg width="64" height="64" viewBox="0 0 64 64" fill="none" xmlns="http://www.w3.org/2000/svg">
<path d="M12 38.5L17 23L23 39" stroke="currentColor" stroke-width="1.5" stroke-linejoin="bevel"/>
<path d="M42 38.5L47 23L53 39" stroke="currentColor" stroke-width="1.5" stroke-linejoin="bevel"/>
<path d="M50 22.5C41.5 23 39.4737 16 32 16C24.5263 16 23.5 22.5 14 22.5" stroke="currentColor" stroke-width="1.5"/>
<circle cx="32" cy="16" r="2" fill="currentColor"/>
<path d="M37.0493 42V41.25H36.2212L36.303 42.0741L37.0493 42ZM56.9506 42L57.6969 42.0741L57.7787 41.25H56.9506V42ZM46.9999 50.25C42.2039 50.25 38.2597 46.5994 37.7956 41.9259L36.303 42.0741C36.8424 47.5072 41.4252 51.75 46.9999 51.75V50.25ZM56.2042 41.9259C55.7402 46.5994 51.7959 50.25 46.9999 50.25V51.75C52.5746 51.75 57.1575 47.5072 57.6969 42.0741L56.2042 41.9259ZM56.9506 41.25H37.0493V42.75H56.9506V41.25Z" fill="currentColor"/>
<path d="M7.04932 42V41.25H6.22116L6.30299 42.0741L7.04932 42ZM26.9506 42L27.6969 42.0741L27.7787 41.25H26.9506V42ZM16.9999 50.25C12.2039 50.25 8.25966 46.5994 7.79565 41.9259L6.30299 42.0741C6.84242 47.5072 11.4252 51.75 16.9999 51.75V50.25ZM26.2042 41.9259C25.7402 46.5994 21.7959 50.25 16.9999 50.25V51.75C22.5746 51.75 27.1575 47.5072 27.6969 42.0741L26.2042 41.9259ZM26.9506 41.25H7.04932V42.75H26.9506V41.25Z" fill="currentColor"/>
</svg>
