<svg width="64" height="64" viewBox="0 0 64 64" fill="none" xmlns="http://www.w3.org/2000/svg">
<path d="M49 35C49 39.2236 47.6629 43.3388 45.1803 46.7557C42.6978 50.1727 39.1972 52.716 35.1803 54.0211C31.1635 55.3263 26.8365 55.3263 22.8197 54.0211C18.8028 52.716 15.3022 50.1727 12.8197 46.7557C10.3371 43.3388 9 39.2236 9 35C9 30.7764 10.3371 26.6612 12.8197 23.2443C15.3022 19.8273 18.8028 17.284 22.8197 15.9789C26.8365 14.6737 31.1635 14.6737 35.1803 15.9789L29 35H49Z" stroke="currentColor" stroke-width="1.5"/>
<path d="M40.1803 11.9789C44.1972 13.284 47.6978 15.8273 50.1803 19.2443C52.6629 22.6613 54 26.7764 54 31L34 31L40.1803 11.9789Z" stroke="currentColor" stroke-width="1.5"/>
</svg>
